<svg width="68" height="68" viewBox="0 0 68 68" fill="none" xmlns="http://www.w3.org/2000/svg">
<path d="M34.0001 30.3333C31.9667 30.3333 30.3334 31.9666 30.3334 34C30.3334 36.0333 31.9667 37.6666 34.0001 37.6666C36.0334 37.6666 37.6668 36.0333 37.6668 34C37.6668 31.9666 36.0334 30.3333 34.0001 30.3333ZM34.0001 0.666626C15.6001 0.666626 0.666748 15.6 0.666748 34C0.666748 52.4 15.6001 67.3333 34.0001 67.3333C52.4001 67.3333 67.3334 52.4 67.3334 34C67.3334 15.6 52.4001 0.666626 34.0001 0.666626ZM41.3001 41.3L14.0001 54L26.7001 26.7L54.0001 14L41.3001 41.3Z" fill="#D6BD33"/>
</svg>
