<svg width="60" height="67" viewBox="0 0 60 67" fill="none" xmlns="http://www.w3.org/2000/svg">
<path d="M53.3333 7.00004H39.4C38 3.13337 34.3333 0.333374 30 0.333374C25.6667 0.333374 22 3.13337 20.6 7.00004H6.66667C3 7.00004 0 10 0 13.6667V60.3334C0 64 3 67 6.66667 67H53.3333C57 67 60 64 60 60.3334V13.6667C60 10 57 7.00004 53.3333 7.00004ZM30 7.00004C31.8333 7.00004 33.3333 8.50004 33.3333 10.3334C33.3333 12.1667 31.8333 13.6667 30 13.6667C28.1667 13.6667 26.6667 12.1667 26.6667 10.3334C26.6667 8.50004 28.1667 7.00004 30 7.00004ZM23.3333 53.6667L10 40.3334L14.7 35.6334L23.3333 44.2334L45.3 22.2667L50 27L23.3333 53.6667Z" fill="#D6BD33"/>
</svg>
