<svg width="74" height="74" viewBox="0 0 74 74" fill="none" xmlns="http://www.w3.org/2000/svg">
<path d="M19.5333 15.1334L13.5333 9.16671L8.83325 13.8667L14.7999 19.8334L19.5333 15.1334ZM10.3333 34H0.333252V40.6667H10.3333V34ZM40.3332 0.833374H33.6666V10.6667H40.3332V0.833374ZM65.1666 13.8667L60.4666 9.16671L54.4999 15.1334L59.1999 19.8334L65.1666 13.8667ZM54.4666 59.5334L60.4332 65.5334L65.1332 60.8334L59.1332 54.8667L54.4666 59.5334ZM63.6666 34V40.6667H73.6666V34H63.6666ZM36.9999 17.3334C25.9666 17.3334 16.9999 26.3 16.9999 37.3334C16.9999 48.3667 25.9666 57.3334 36.9999 57.3334C48.0332 57.3334 56.9999 48.3667 56.9999 37.3334C56.9999 26.3 48.0332 17.3334 36.9999 17.3334ZM33.6666 73.8334H40.3332V64.0001H33.6666V73.8334ZM8.83325 60.8001L13.5333 65.5001L19.4999 59.5001L14.7999 54.8001L8.83325 60.8001Z" fill="#D6BD33"/>
</svg>
